<svg width="35" height="33" viewBox="0 0 35 33" fill="none" xmlns="http://www.w3.org/2000/svg">
<rect width="35" height="33" rx="16.5" fill="#B3DB48"/>
<path d="M8.50977 15.7207V20.2107C8.50977 24.7007 10.3098 26.5007 14.7998 26.5007H20.1898C24.6798 26.5007 26.4798 24.7007 26.4798 20.2107V15.7207" stroke="white" stroke-width="1.5" stroke-linecap="round" stroke-linejoin="round"/>
<path d="M17.5005 16.5C19.3305 16.5 20.6805 15.01 20.5005 13.18L19.8405 6.5H15.1705L14.5005 13.18C14.3205 15.01 15.6705 16.5 17.5005 16.5Z" stroke="white" stroke-width="1.5" stroke-linecap="round" stroke-linejoin="round"/>
<path d="M23.8098 16.5C25.8298 16.5 27.3098 14.86 27.1098 12.85L26.8298 10.1C26.4698 7.5 25.4698 6.5 22.8498 6.5H19.7998L20.4998 13.51C20.6698 15.16 22.1598 16.5 23.8098 16.5Z" stroke="white" stroke-width="1.5" stroke-linecap="round" stroke-linejoin="round"/>
<path d="M11.1404 16.5C12.7904 16.5 14.2804 15.16 14.4404 13.51L14.6604 11.3L15.1404 6.5H12.0904C9.47037 6.5 8.47037 7.5 8.11037 10.1L7.84037 12.85C7.64037 14.86 9.12037 16.5 11.1404 16.5Z" stroke="white" stroke-width="1.5" stroke-linecap="round" stroke-linejoin="round"/>
<path d="M17.5 21.5C15.83 21.5 15 22.33 15 24V26.5H20V24C20 22.33 19.17 21.5 17.5 21.5Z" stroke="white" stroke-width="1.5" stroke-linecap="round" stroke-linejoin="round"/>
</svg>
